<svg xmlns="http://www.w3.org/2000/svg" viewBox="0 0 620 380">
    <path fill="#ffc576bf" d="M309.5 100.8c0 12.6 3.8 22.8 11.3 30.2 7.5 7.4 17.6 11.2 30.1 11.2 17.2 0 35.9-8.2 55.6-24.5-7.9 11.6-14.6 20.2-20 25.5a59.38 59.38 0 01-20.2 13.2c-25.8-6.7-45.6-10.1-58.6-10.1-17.5 0-26 3.3-26 10.2 0 7.3 11.1 10.8 33.9 10.8 12.1 0 24.4-1.2 36.3-3.5.2 0 1.8.4 11 3.4l.4.1c8.3 2.6 15.6 2.8 23.3 2.8h4.8c13.3 0 23.5-2.4 30.5-7.2.1-.1.2-.2.4-.3.5 1.2 1.1 2.3 1.9 3.3 2.2 2.8 5 4.2 8.2 4.2 3 0 6.2-1.5 9.4-4.4 2.5-2.3 5.9-6.3 10.1-12-.5 1.8-.8 3.6-.8 5.3 0 3.1.9 5.8 2.7 7.9 1.8 2.1 4.2 3.2 7 3.2 4.2 0 9.6-4.1 16.6-12.5 12.8-15.2 12.8-16.6 12.8-17.2 0-.7-.5-1.2-1.2-1.2s-1.2.7-1.5 1.2c-5.2 7.7-10.4 14.2-15.4 19.5-6.1 6.4-9.2 7.7-10.6 7.7-1.3 0-2.7-.4-2.7-3.4 0-2.7 2.6-8.5 7.9-17.2l15.3-25.3c.1-.2.1-.5 0-.7-.1-.2-.4-.3-.7-.3-2.4.4-8.7.4-10.4 0-.3-.1-.6.1-.8.3l-2.4 4.6c-.1-3.7-2.2-5.7-6-5.7-4.3 0-10 2-16.9 5.8-15.8 8.6-23.8 18.7-23.8 30 0 1.2.1 2.3.3 3.4-4.8 3.3-10.1 5-15.8 5-4.5 0-9.5-.6-15.8-1.8-.2 0-1.5-.4-3.3-.9-7.8-2-12.3-3.2-14.8-3.7 15.5-4.7 27.1-10.9 35.4-18.8 9.4-8.9 18.6-23.1 27.4-42.3 11-8.1 22.5-19 34.2-32.3 4.5.8 9.2 1.8 13.8 2.8 23.5 5.5 44.5 8.2 62.4 8.2 41.9 0 52.9-15 53.3-15.6.3-.4 7.8-9.3 4.3-19.5-1.7-5.1-4.7-8-8.3-8-2.5 0-4.9 1.5-6.3 3.9-1.1 2-1 4.9.5 7.3 1.9 3.3 5.3 4.3 7.8 2.3.5 1.7 1.1 5.3-1.1 9.4-2.8 5.3-10.9 12.4-33.6 16-4.5.7-9.1 1.1-13.7 1.1-18.7 0-36-5.8-52.8-11.4-6.3-2.1-12.4-4.2-18.5-5.9 8.3-10.3 12.4-17.5 12.4-21.8 0-2-.9-4.5-5-4.5-7.2 0-17.1 6.8-30.4 20.7-.3.3-.6.7-.9 1-1.8-.1-3.6-.2-5.4-.2-1.4 0-2.8 0-4.1.1-.9 0-7.6 0-17.1 1 .1-1.2.2-2.5.2-3.7 0-8.3-2.9-15.1-8.5-20s-13.3-7.4-22.7-7.4c-20.2 0-39.7 8.7-57.8 25.9-18.4 17.2-27.6 35.6-27.6 54.8zm7 63.3c-26.3 0-31.8-4.1-31.8-7.6 0-3.6 4.4-5.4 13.2-5.4 8.4 0 24.4 3.7 47.5 10.9-8.7 1.4-18.4 2.1-28.9 2.1zm124.9-26.3c8.4-10.2 15.3-15.3 20.4-15.3 2.2 0 3.2 1.1 3.2 3.6 0 3.9-4 11.2-11.9 21.9-11.3 15.2-17.8 16.9-20.1 16.9-3 0-4.3-1.6-4.3-4.9-.1-6.1 3.8-11.5 12.7-22.2zm21.3-90.7c8.9-10.4 16-15.7 20.9-15.7 1.6 0 1.9.8 1.9 1.6 0 3.7-4.2 10.7-12.5 20.9-4.5-1.2-8.9-2.2-13.4-2.8 1.1-1.4 2.1-2.8 3.1-4zm-10.4 14.8c4 .4 8.2 1 12.3 1.7A256.9 256.9 0 01437 90.4c5.4-11.2 10.5-20.7 15.3-28.5zm-55.6-38.5c7.5 0 13.8 2.3 18.6 6.8 4.8 4.5 7.2 10.4 7.2 17.4 0 1.3-.1 2.6-.2 3.9-24 2.7-62 10.9-74.4 36-1.7 3.9-2.1 7.2-2 10.1v.3c0 5.1 1.9 9.5 5.8 13a20 20 0 0014 5.3c12.8 0 26.1-7.9 39.7-23.4 9.5-10.8 15.7-21.5 18.6-31.9 2.1-.1 4.2-.1 6.4-.1 4.1 0 8.3.1 12.5.4-2.5 3.1-4.8 6.2-7 9.2-5 7.2-13.1 20.1-24.1 38.5-13.1 11.1-24.3 19-33.2 23.4-8.9 4.4-18 6.7-27 6.7-10.4 0-18.7-2.7-24.7-8-5.9-5.3-8.9-12.6-8.9-21.9 0-20 8.6-39.4 25.5-57.9s34.8-27.8 53.2-27.8zM420.4 61c-2.9 9.4-8.6 19.1-17.4 29.2-12.9 15-25.3 22.5-36.6 22.5-4.8 0-8.9-1.4-12.1-4.3-2.9-2.6-4.4-5.7-4.7-9.5-.1-3.8.9-8.3 4.6-12.9.1-.2 19-22.2 66.2-25z"/>
    <path fill="#ffc576bf" d="M207.6 171.6c1.4.2 3.1.3 5.1.3 9.5 0 18.8-2.3 27.7-6.7 4.1-1.7 7.9-4 11.5-6.8 7.1-.6 13.7-2.4 19.7-4.1 3.3-.9 3-2.1-.4-1.4-5.5 1.1-10.5 2-15.9 2.6 10.5-9.9 17.5-24.2 17.7-37.6.2-14.9-6.4-26.1-16.5-32.6 11.4-14.9 24.9-28.8 40.3-41.7 10.4-2.9 20.2-6.3 28.9-10.2 11.6-5.4 13.2-7.5 13.2-9 0-.8-.3-2.5-3-2.5-7.8 0-21.4 6.2-41.3 19-14.9 3.7-27.9 6.2-38.6 7.4-24.6 3.1-41.9 6.1-51.4 9.1s-19.1 8.3-28.5 15.9c-15.9 12.9-24 29.2-24 48.5 0 10.8 3.3 20.6 9.7 29 6.2 8.2 14.7 14 25.1 17.4l-2.1 3.6c-11.7 20.6-23.3 41.1-34.8 61.5-7.1 12.1-14.5 22.6-22.2 31.2-19.5 21.9-42.9 33-69.7 33-12.5 0-23-2.8-31.3-8.4-8.2-5.5-12.3-12.4-12.3-20.4 0-3.8.5-6.2 1.5-6.8v.3c.3 7.3 3.5 11.1 9.5 11.1 8.1 0 12.2-4.5 12.2-13.5 0-7.6-3.8-11.4-11.2-11.4-4.6 0-8.5 2-11.6 5.8-3.1 3.8-4.7 8.5-4.7 14 0 9.9 4.6 18.1 13.7 24.5 9 6.3 20.6 9.5 34.6 9.5 24.1 0 48-7.4 71-21.9 14.4-9.1 26.3-19.7 35.4-31.3 9-11.6 20.3-31.2 33.6-58.2 5.2-11.2 8.2-17.2 9.1-19.2zm-3-34c-1.4-2-2.8-4.1-4-6.4-9.6-19.3 1.7-44.7 22.9-49 7.7-1.6 15-.9 21.3 1.5-13.8 15.3-27.2 33.2-40.2 53.9zm7.8 30.2h-2.8c2.2-4.8 4.5-9.5 6.6-14 8.5 3.6 18.4 5 28.3 4.8-9.4 6.1-20.1 9.2-32.1 9.2zm55.1-52.4c.9 11.2-2.2 23.6-11.8 34.2-2.2 2.3-4.5 4.4-7 6.2-10.8.4-21.4-1.3-30.3-6.2 11.7-23.6 22.6-42.7 32.5-56.8 1-1.4 2-2.7 3-4.1 7.6 6 12.7 15.4 13.6 26.7zM162 130.7c0-16.9 9.1-33.2 27.1-48.6 8.5-7.2 18-13.1 28.3-17.4 10.3-4.3 25.6-8.7 45.4-13.2 10-2.2 18.4-4.2 25-5.8-13.7 9.2-27.1 20.9-40.2 35-7.4-2.4-15.8-2.9-24.5-1.1-23.2 4.8-36.5 27.9-28.9 50.5 1.7 5 4.1 9.3 7.2 12.8-4.2 6.8-8.3 13.9-12.4 21.2-18-6-27-17.3-27-33.4z"/>
    <path fill="#ffc576bf" d="M610.8 243c-.1-1-.3-2-.5-3.1 0-.3-.1-.5-.2-.8-.1-.2-.1-.5-.2-.7-.1-.3-.2-.5-.2-.7-.1-.2-.2-.5-.3-.7-.4-.9-.8-1.9-1.3-2.8-.1-.2-.3-.5-.4-.7-.1-.2-.3-.4-.4-.7-.1-.2-.3-.4-.5-.6-.1-.2-.3-.4-.5-.6-.6-.8-1.3-1.6-2.1-2.3-.4-.4-.8-.7-1.2-1-.4-.3-.8-.7-1.3-1-.4-.3-.9-.6-1.3-.9-.5-.3-.9-.5-1.4-.8-.5-.3-.9-.5-1.4-.7l-1.5-.6c-1-.3-2-.6-3.1-.8-1-.2-2.1-.4-3.1-.5-1.1-.1-2.1-.1-3.2-.1-1 0-2.1 0-3.1.1s-2.1.2-3.1.4-2.1.3-3.1.5c-2 .4-4.1.9-6 1.5a102.03 102.03 0 00-11.6 4.3c-1.9.9-3.8 1.8-5.6 2.6-1.9.9-3.7 1.8-5.5 2.8-.5.3-.9.5-1.4.8-.5.2-.9.5-1.4.8-.5.2-.9.5-1.4.7-.4.2-.9.5-1.3.8-.2.1-.4.2-.7.4-.2.1-.4.3-.7.4l-.7.4-.6.4c-.5.3-.9.5-1.3.8-.4.2-.9.5-1.3.7-1.8 1-12.5 7.5-17.5 5.9-5.4-1.6-6.8-4.2-8.4-6.7 8.7-5.3 18.3-12 25.9-19.6 13.2-11.9 24.6-29.2 8.1-32.7-32-4.9-52.4 32.7-50.9 50 .3 2.3.7 4.4 1.2 6.3-.9.5-1.7.9-2.5 1.3-12.2 5-17.3 3.2-17.3 3.2-8.6-2.5-5.6-15.2-1.5-23l18-33.5c2.5-1.4 7.7-3.9 15.5-7.6 38.2-17.7 57.5-35.3 57.5-52.6 0-3.4-1.3-6.3-3.8-8.6s-5.7-3.5-9.5-3.4c-9.9.1-21.7 5.6-35.1 16.6-13.9 11.3-26.5 27.5-37.6 48.3l-5.3 9.7c-7.2 3.9-16.4 9.9-26.4 18.5L463 189l-18.1.2-4.2 7.6c-.3-7-4.7-8.5-8.4-8.5-7.2 0-17.1 1-29.8 8.9-10.6 6.6-18.7 15-23.4 23.9-16.6 23.8-25.8 33.2-32.5 33.2-3 0-4.4-1.4-4.4-4.4 0-2.2 2.2-5.4 6.5-11.7 1.4-2.1 3.1-4.5 5-7.3 7.8-11.7 12.6-20 12.6-25.7 0-5-1.1-8.6-3.4-11.4-2.7-3.2-7.6-4.7-11.2-4.7-4.6 0-9.6 2.6-15 7.6-3.9 3.6-9 9.7-15.3 17.9 2.2-4.7 3.4-8.7 3.4-11.9 0-3.7-1-6.9-3.1-9.6-2.1-2.7-4.7-4.1-7.7-4.1-6.9 0-12.6 7.6-23.9 22.7l-10.3 13.5c-13.6 17.7-18.3 21.6-18.3 21.6l.1.1c-7.6 6.4-12.2 7.2-14 7.2-3 0-4.4-1.5-4.4-4.6 0-3.6 3.6-9.5 10.8-21.2l23.7-38.6-16.9.1-12.8 21.1c-22.3 37.7-34.2 43.4-39.4 43.4-1.7 0-4-.5-4-4.8 0-2.9.9-4.4 2.9-7.5.4-.7.9-1.5 1.5-2.4l30.1-49.6-16.6.1-22.7 38.2c-3.8 6.2-5.6 11.9-5.6 16.8 0 4.3 1.3 7.9 3.9 10.9 2.6 3 5.8 4.5 9.7 4.5 3.6 0 7.5-1.9 11.5-5.7 3.2-3 8.2-8.8 14.9-17.2-1.2 2.9-1.7 5.3-1.7 7.3 0 4.3 1.3 8 3.9 11 2.6 3.1 5.9 4.6 9.7 4.6 4.9 0 11-3.9 18.4-11.6 2.1-2 7.3-7.6 17.8-21.2l2.5-3.3c6.3-8.2 12.3-16 19.6-24.2 3.5-3.5 7.8-1.7 7.8 1 0 4.2-2.6 9.4-13.5 26.7l-20 31.7 17.2-.2.2-.4c29.7-53 47.2-60.9 54.9-60.9 2.4 0 3.6 1 3.6 3 0 1.6-1.1 3.2-4.1 7.4-1.2 1.8-15.1 22.5-16.7 25.7-1.6 3.2-2.4 6.8-2.4 10.6 0 4.4 1.3 8.1 3.9 11.1 2.6 3 6 4.6 9.9 4.6 5.9 0 13.6-5.8 23.6-17.8 2-2.3 3.7-4.4 5.3-6.3-.1 1.1-.2 2.3-.2 3.4 0 5.6 1.6 10.5 4.7 14.5 3.2 4 7.2 6.1 11.7 6.1 4.2 0 8.3-1.9 12.3-5.5 2.5-2.4 6.3-6.7 11.3-13l-18.4 33.8c-106.3-25.7-105.3 44.7-93.1 68.4 7 13.9 13.3 22.6 28.6 25.7a25.39 25.39 0 0012.8 1c10.5-1.8 20.1-10.1 28.8-24.7l34.6-61.2c1.6.4 3.3.9 5 1.4 1 .4 1.9.7 2.9 1.1 2.2 1 4.5 2 6.7 3.1a132.93 132.93 0 018.1 4.3c.5.3 1.1.6 1.6.9.5.3 1 .6 1.6.9.5.3 1.1.6 1.6 1 .3.2.5.3.8.5.3.2.5.3.8.5l.8.5.8.5c.5.3 1.1.7 1.6 1 .5.3 1.1.6 1.6 1 .3.2.5.4.8.5.3.2.5.3.8.5.3.2.5.3.8.5.3.2.6.3.8.5.5.3 1.1.6 1.6 1 .5.3 1.1.7 1.6 1 1.1.6 2.2 1.2 3.3 1.9 1.1.6 2.2 1.2 3.4 1.8 1.1.6 2.3 1.2 3.5 1.8 1.2.6 2.3 1.1 3.5 1.7 1.2.5 2.3 1.1 3.5 1.6 1.2.5 2.4 1 3.6 1.6 2.4 1 4.9 2 7.4 2.8 2.5.9 5 1.6 7.7 2.3 2.6.7 5.3 1.3 7.9 1.8 2.7.5 5.4.9 8.3 1.1 1.4.1 2.8.1 4.2.2 1.4 0 2.8 0 4.3-.1.7 0 1.4-.1 2.1-.1.7 0 1.4-.1 2.1-.2l2.2-.3 2.2-.3c.4-.1.7-.1 1.1-.2.3-.1.7-.1 1.1-.2.4-.1.7-.2 1.1-.2.3-.1.7-.1 1.1-.2.4-.1.8-.2 1.1-.3.3-.1.7-.2 1.1-.3.4-.1.7-.2 1-.3l1-.3c.4-.1.8-.2 1.1-.4.3-.1.7-.2 1.1-.4.4-.1.7-.3 1.1-.4.3-.1.7-.3 1-.4.7-.3 1.4-.5 2.1-.8.7-.3 1.3-.6 2.1-.9 2.7-1.3 5.2-2.9 7.7-4.6 1.2-.8 2.4-1.8 3.6-2.7.6-.5 1.1-1 1.7-1.5.3-.2.6-.5.8-.8l.8-.8c1-1 1.8-2.2 2.3-3.5.5-1.3.8-2.6.9-4 .1-1.4-.1-2.7-.5-4.1-.4-1.4-1.1-2.6-2-3.7-1-1.2-2.2-2.2-3.5-2.9-1.4-.7-2.8-1.1-4.3-1.3a11 11 0 00-4.4.4c-1.5.4-2.8 1.1-4 2.1l-.2.2-1.1.9c-.2.2-.4.3-.6.5-.2.1-.4.3-.6.5-.4.3-.7.6-1.1.9l-1.2.9c-.8.6-1.6 1.1-2.4 1.7-.8.6-1.7 1.1-2.5 1.6l-2.5 1.4c-.2.1-.5.2-.7.3-.2.1-.5.2-.7.3-.4.2-.9.5-1.4.7-.2.1-.4.2-.7.3-.2.1-.5.2-.7.3-.2.1-.5.2-.7.3-.2.1-.5.2-.7.3-.3.1-.5.2-.7.2-.2.1-.5.2-.7.3-.2.1-.4.2-.7.2-.2.1-.5.2-.7.3-4 1.3-8.2 2.2-12.5 2.8l-3.3.3c-1.1.1-2.2.1-3.3.2h-3.4c-1.1 0-2.3-.1-3.4-.1-2.3-.1-4.6-.3-6.9-.6-2.3-.3-4.7-.7-7-1.1-1.2-.2-2.3-.5-3.5-.8l-3.5-.9c-.6-.2-1.1-.3-1.7-.5-.6-.1-1.2-.3-1.8-.5-.3-.1-.6-.2-.8-.2-.3-.1-.6-.2-.8-.3l-.9-.3c-.3-.1-.6-.2-.8-.3-2.3-.7-4.6-1.6-6.9-2.5-2.2-.9-4.5-1.8-6.7-2.8-.5-.3-1.1-.5-1.7-.8-.6-.2-1.1-.5-1.7-.8l-1.7-.8c-.3-.1-.6-.3-.8-.4-.3-.1-.6-.3-.8-.4-.6-.3-1.2-.6-1.7-.8-.6-.2-1.1-.5-1.7-.8-.6-.3-1.1-.5-1.7-.8-.6-.2-1.1-.5-1.7-.8-2.3-1-4.6-2-7-2.9-2.3-.9-4.7-1.8-7.1-2.6-2.4-.8-4.8-1.5-7.2-2.2h-.1l10.6-18.8.1.1 21-36.3c11.3-11.3 22.2-19.2 30.9-24.5-9.9 16.3-26.6 50.5-3.8 55.2 7.9 1.6 17.7-1.6 27.4-6.8.7-.3 1.4-.7 2.2-1.1 10 25.5 41.3-.5 43.5-2.3.1 0 .1-.1.2-.1l1.2-.9 1.2-.9.6-.5.6-.5c.2-.1.4-.3.6-.4.2-.1.4-.3.6-.4l1.2-.9 1.2-.9c.4-.3.8-.6 1.3-.9.4-.3.8-.6 1.2-.8l5.1-3.3c1.7-1 3.5-2 5.2-3 1.8-.9 3.6-1.8 5.4-2.6 1.8-.8 3.7-1.6 5.6-2.3.9-.3 1.9-.6 2.8-.9.9-.3 1.9-.6 2.9-.8l2.9-.6c1-.2 1.9-.3 2.9-.4 1-.1 2-.2 2.9-.2h3c1 .1 2 .2 2.9.4.9.2 1.9.4 2.8.7 1.9.6 3.7 1.4 5.3 2.5.8.5 1.6 1.1 2.3 1.8.7.6 1.4 1.3 2 2.1.6.8 1.2 1.6 1.7 2.4.5.8 1 1.7 1.4 2.6.1.2.2.5.3.7.1.2.2.5.2.7.1.2.2.5.3.7.1.2.1.5.2.7.1.2.1.5.2.7.1.2.1.5.2.7 0 .2.1.5.1.7.1.2.1.5.1.7.1 1 .2 2 .1 2.9 0 .9-.2 1.9-.5 2.9-.1.5-.3 1-.5 1.3-.1.2-.2.5-.3.7-.1.2-.2.4-.4.6-.2.4-.5.8-.8 1.2-.3.4-.6.7-1 1l-1.2.9c-.4.2-.8.4-1.3.6-.2.1-.4.2-.7.2-.2.1-.5.1-.7.2-.2 0-.5 0-.7.1h-.7c-.5 0-.9-.1-1.4-.3-.4-.1-.8-.3-1.3-.5-.3-.2-.7-.4-1.2-.8-.1-.1-.2-.2-.3-.2-.1-.1-.2-.1-.3-.3l-.1-.1-.1-.1-.1-.1-.1-.1c-.1-.2-.3-.2-.5-.3-.2 0-.3 0-.5.2-.4.3-.4.6-.1 1l.1.1s.1.1.2.1c0 .1.1.2.3.3.2.2.4.4.6.5.5.3 1 .6 1.4.8 1 .5 2 .7 3.2.7.6 0 1.1 0 1.7-.1.5-.1 1.1-.2 1.6-.4s1-.5 1.4-.7a9.14 9.14 0 003.3-3.3c.6-.9 1-1.9 1.3-2.9.2-.5.3-1 .3-1.5.1-.5.1-1 .2-1.6-.6-1.2-.7-2.2-.8-3.2zm-83.3-105.1c8.3-9 16.9-13.6 25.6-13.7h.1c2.7 0 4.8.7 6.5 2.3 1.7 1.5 2.5 3.4 2.5 5.6.1 14.3-18.6 30.9-55.4 49.4-4.7 2.3-8.3 4.1-10.7 5.4 12.5-23.4 23-39.9 31.4-49zM359.2 341.6c-.2.3-16.5 27.8-32.7 23.1-17.8-9.2-32.8-39.4-7.3-66.2 22.3-23.4 35.5-26.6 73.2-17.5l-33.2 60.6zm77-138.7c-.9 6.4-6.1 13-20 30.6l-.9 1.2c-13.4 16.9-21.1 18.8-23.8 18.8-4.2 0-6.1-2.3-6.1-7.2 0-8.8 6.1-17.7 18.1-32.2 10.4-12.6 20-19 28.6-19 1.4 0 2.4.4 3.1 1.2 1 1.1 1.4 3.5 1 6.6zm73.7 33.5c-6.6-15.8 29.5-49 36.2-39 .6.9.9 1.8.9 2.8 1 6.2-13.2 19.6-24.1 27.7-.4.3-.7.5-.7.5-4.1 3-8.3 5.7-12.3 8.2.1-.1 0-.2 0-.2z"/>
</svg>
