<svg fill="none" xmlns="http://www.w3.org/2000/svg" viewBox="0 0 61 59"><path d="M23.9195 2.9096c.5684 2.1348-.8442 4.3641-3.1551 4.9795-2.311.6153-4.6451-.6165-5.2136-2.7512-.5684-2.1348.8443-4.3642 3.1552-4.9795 2.3109-.6153 4.6451.6164 5.2135 2.7512z" fill="#ffc576"/><path fill-rule="evenodd" clip-rule="evenodd" d="M19.5217 15.4569c-1.6667-.1667-5.3.5-6.5 4.5-1.2 4-4.1667 19.3333-5.5 26.5-2.6667 1.3333-7.9 4.8-7.5 8 .5 4 7 5.5 10 0 2.4-4.4 3-6.5 3-7 3.5-2.3334 10.8-7.4 12-9 1 3.5 3.5 5.5 8.5 5.5 9.5 0 16-9.5 16-14 6.5 0 10.5-3.5 10.5-7.5l-.2856.1785c-3.7884 2.3692-5.3111 3.3215-9.2144 3.3215 1-4 0-9-5-9 4-4 5-12 3-14.5s-11.5-2-16 5.5-8.0591 18.0119-8 24.4999c-4 5.5-8.5 10.5-11 11 .8-5.2 4.3333-20.8333 6-27.9999zm10.9999 9.5c2.8334-8.3334 9.6-23.9 14-19.5 3.5 4.5-8 16.5-14 19.5zm-.5 6.9999c-.5 2.8334-.4 8.4 4 8 5.5-.5 10.0001-5.5 11.0001-11-3-2-3.5-5.5-3.5-7.5-2.5 1-9.5001 7-11.5001 10.5z" fill="#ffc576"/></svg>
